<svg width="86" height="36" viewBox="0 0 86 36" fill="none" xmlns="http://www.w3.org/2000/svg">
<path d="M12.5909 26.84H13.7569L15.1649 33.407L16.5069 26.84H17.6399L15.6709 35.75H14.5819L12.5909 26.84Z" fill="black"/>
<path d="M18.5846 26.84H22.0386V27.764H19.8276V30.712H21.6206V31.592H19.8276V34.859H22.0606V35.75H18.5846V26.84Z" fill="black"/>
<path d="M23.0641 26.84H23.9111L26.4411 32.758V26.84H27.4751V35.75H26.6831L24.1201 29.667V35.75H23.0641V26.84Z" fill="black"/>
<path d="M29.8546 27.764H28.3476V26.84H32.5606V27.764H31.0976V35.75H29.8546V27.764Z" fill="black"/>
<path d="M34.8061 26.84H36.0051L37.9081 35.75H36.7311L36.3241 33.506H34.5091L34.0801 35.75H32.9141L34.8061 26.84ZM36.1591 32.615L35.4111 28.6L34.6741 32.615H36.1591Z" fill="black"/>
<path d="M40.9131 35.849C40.1651 35.849 39.5931 35.618 39.1971 35.156C38.8085 34.694 38.5921 34.0597 38.5481 33.253L39.6481 32.956C39.6848 33.528 39.7948 33.99 39.9781 34.342C40.1688 34.694 40.4805 34.87 40.9131 34.87C41.2358 34.87 41.4778 34.782 41.6391 34.606C41.8078 34.4227 41.8921 34.1623 41.8921 33.825C41.8921 33.4583 41.8151 33.154 41.6611 32.912C41.5071 32.67 41.2615 32.4023 40.9241 32.109L39.4281 30.789C39.1275 30.525 38.9075 30.2427 38.7681 29.942C38.6361 29.634 38.5701 29.26 38.5701 28.82C38.5701 28.1673 38.7571 27.6613 39.1311 27.302C39.5051 26.9427 40.0148 26.763 40.6601 26.763C41.3641 26.763 41.8958 26.95 42.2551 27.324C42.6145 27.698 42.8308 28.2773 42.9041 29.062L41.8481 29.348C41.8115 28.8273 41.7088 28.4277 41.5401 28.149C41.3788 27.863 41.0855 27.72 40.6601 27.72C40.3448 27.72 40.1028 27.8043 39.9341 27.973C39.7655 28.1343 39.6811 28.3763 39.6811 28.699C39.6811 28.963 39.7251 29.1867 39.8131 29.37C39.9011 29.546 40.0515 29.7257 40.2641 29.909L41.7711 31.229C42.1598 31.5737 42.4678 31.9477 42.6951 32.351C42.9298 32.7543 43.0471 33.2127 43.0471 33.726C43.0471 34.3787 42.8491 34.8957 42.4531 35.277C42.0571 35.6583 41.5438 35.849 40.9131 35.849Z" fill="black"/>
<path d="M48.802 35.849C47.9294 35.849 47.3024 35.6033 46.921 35.112C46.547 34.6133 46.36 33.8947 46.36 32.956V29.579C46.36 28.655 46.5507 27.9547 46.932 27.478C47.3134 27.0013 47.9367 26.763 48.802 26.763C49.6674 26.763 50.287 27.005 50.661 27.489C51.0424 27.9657 51.233 28.6623 51.233 29.579V32.967C51.233 33.891 51.0424 34.6023 50.661 35.101C50.2797 35.5997 49.66 35.849 48.802 35.849ZM48.802 34.87C49.264 34.87 49.5757 34.7343 49.737 34.463C49.8984 34.1917 49.979 33.781 49.979 33.231V29.326C49.979 28.7833 49.8984 28.3837 49.737 28.127C49.5757 27.863 49.264 27.731 48.802 27.731C48.3327 27.731 48.0174 27.863 47.856 28.127C47.6947 28.3837 47.614 28.7833 47.614 29.326V33.231C47.614 33.781 47.6947 34.1917 47.856 34.463C48.0174 34.7343 48.3327 34.87 48.802 34.87Z" fill="black"/>
<path d="M52.4547 26.84H53.3017L55.8317 32.758V26.84H56.8657V35.75H56.0737L53.5107 29.667V35.75H52.4547V26.84Z" fill="black"/>
<path d="M58.2663 26.84H59.5092V34.859H61.7862V35.75H58.2663V26.84Z" fill="black"/>
<path d="M62.7043 26.84H63.9253V35.75H62.7043V26.84Z" fill="black"/>
<path d="M65.3668 26.84H66.2138L68.7438 32.758V26.84H69.7778V35.75H68.9858L66.4228 29.667V35.75H65.3668V26.84Z" fill="black"/>
<path d="M71.1784 26.84H74.6324V27.764H72.4214V30.712H74.2144V31.592H72.4214V34.859H74.6544V35.75H71.1784V26.84Z" fill="black"/>
<path d="M9.96094 14.0869C9.96094 13.3952 9.7168 12.8662 9.22852 12.5C8.74023 12.1257 7.86133 11.735 6.5918 11.3281C5.32227 10.9131 4.31722 10.5062 3.57666 10.1074C1.55843 9.01693 0.549316 7.54801 0.549316 5.70068C0.549316 4.7404 0.817871 3.88591 1.35498 3.13721C1.90023 2.38037 2.67741 1.79036 3.68652 1.36719C4.70378 0.94401 5.8431 0.732422 7.10449 0.732422C8.37402 0.732422 9.50521 0.964355 10.498 1.42822C11.4909 1.88395 12.2599 2.53092 12.8052 3.36914C13.3586 4.20736 13.6353 5.15951 13.6353 6.22559H9.97314C9.97314 5.41178 9.7168 4.78109 9.2041 4.3335C8.69141 3.87777 7.97119 3.6499 7.04346 3.6499C6.14827 3.6499 5.45247 3.84115 4.95605 4.22363C4.45964 4.59798 4.21143 5.0944 4.21143 5.71289C4.21143 6.29069 4.50033 6.7749 5.07812 7.16553C5.66406 7.55615 6.52262 7.92236 7.65381 8.26416C9.73714 8.89079 11.2549 9.66797 12.207 10.5957C13.1592 11.5234 13.6353 12.679 13.6353 14.0625C13.6353 15.6006 13.0534 16.8091 11.8896 17.688C10.7259 18.5588 9.15934 18.9941 7.18994 18.9941C5.82275 18.9941 4.57764 18.7459 3.45459 18.2495C2.33154 17.745 1.47298 17.0573 0.878906 16.1865C0.292969 15.3158 0 14.3066 0 13.1592H3.67432C3.67432 15.1204 4.84619 16.1011 7.18994 16.1011C8.06071 16.1011 8.74023 15.9261 9.22852 15.5762C9.7168 15.2181 9.96094 14.7217 9.96094 14.0869Z" fill="#12161C"/>
<path d="M19.1406 5.54199L19.2505 7.06787C20.1945 5.88786 21.46 5.29785 23.0469 5.29785C24.4466 5.29785 25.4883 5.70882 26.1719 6.53076C26.8555 7.3527 27.2054 8.58154 27.2217 10.2173V18.75H23.6938V10.3027C23.6938 9.55404 23.5311 9.01286 23.2056 8.6792C22.88 8.3374 22.3389 8.1665 21.582 8.1665C20.5892 8.1665 19.8446 8.58968 19.3481 9.43604V18.75H15.8203V5.54199H19.1406Z" fill="#12161C"/>
<path d="M39.3555 14.0869C39.3555 13.3952 39.1113 12.8662 38.623 12.5C38.1348 12.1257 37.2559 11.735 35.9863 11.3281C34.7168 10.9131 33.7118 10.5062 32.9712 10.1074C30.953 9.01693 29.9438 7.54801 29.9438 5.70068C29.9438 4.7404 30.2124 3.88591 30.7495 3.13721C31.2948 2.38037 32.0719 1.79036 33.0811 1.36719C34.0983 0.94401 35.2376 0.732422 36.499 0.732422C37.7686 0.732422 38.8997 0.964355 39.8926 1.42822C40.8854 1.88395 41.6545 2.53092 42.1997 3.36914C42.7531 4.20736 43.0298 5.15951 43.0298 6.22559H39.3677C39.3677 5.41178 39.1113 4.78109 38.5986 4.3335C38.0859 3.87777 37.3657 3.6499 36.438 3.6499C35.5428 3.6499 34.847 3.84115 34.3506 4.22363C33.8542 4.59798 33.606 5.0944 33.606 5.71289C33.606 6.29069 33.8949 6.7749 34.4727 7.16553C35.0586 7.55615 35.9172 7.92236 37.0483 8.26416C39.1317 8.89079 40.6494 9.66797 41.6016 10.5957C42.5537 11.5234 43.0298 12.679 43.0298 14.0625C43.0298 15.6006 42.4479 16.8091 41.2842 17.688C40.1204 18.5588 38.5539 18.9941 36.5845 18.9941C35.2173 18.9941 33.9722 18.7459 32.8491 18.2495C31.7261 17.745 30.8675 17.0573 30.2734 16.1865C29.6875 15.3158 29.3945 14.3066 29.3945 13.1592H33.0688C33.0688 15.1204 34.2407 16.1011 36.5845 16.1011C37.4552 16.1011 38.1348 15.9261 38.623 15.5762C39.1113 15.2181 39.3555 14.7217 39.3555 14.0869Z" fill="#364EC7"/>
<path d="M48.7305 6.98242C49.6663 5.85938 50.8423 5.29785 52.2583 5.29785C55.1229 5.29785 56.5755 6.96208 56.6162 10.2905V18.75H53.0884V10.3882C53.0884 9.63135 52.9256 9.07389 52.6001 8.71582C52.2746 8.34961 51.7334 8.1665 50.9766 8.1665C49.943 8.1665 49.1943 8.56527 48.7305 9.36279V18.75H45.2026V0H48.7305V6.98242Z" fill="#364EC7"/>
<path d="M58.728 12.0239C58.728 10.7137 58.9803 9.5459 59.4849 8.52051C59.9894 7.49512 60.7137 6.70166 61.6577 6.14014C62.6099 5.57861 63.7126 5.29785 64.9658 5.29785C66.748 5.29785 68.2007 5.8431 69.3237 6.93359C70.4549 8.02409 71.0856 9.50521 71.2158 11.377L71.2402 12.2803C71.2402 14.3066 70.6746 15.9342 69.5435 17.1631C68.4123 18.3838 66.8945 18.9941 64.9902 18.9941C63.0859 18.9941 61.5641 18.3838 60.4248 17.1631C59.2936 15.9424 58.728 14.2822 58.728 12.1826V12.0239ZM62.2559 12.2803C62.2559 13.5335 62.4919 14.4938 62.9639 15.1611C63.4359 15.8203 64.1113 16.1499 64.9902 16.1499C65.8447 16.1499 66.512 15.8244 66.9922 15.1733C67.4723 14.5142 67.7124 13.4644 67.7124 12.0239C67.7124 10.7951 67.4723 9.84294 66.9922 9.16748C66.512 8.49202 65.8366 8.1543 64.9658 8.1543C64.1032 8.1543 63.4359 8.49202 62.9639 9.16748C62.4919 9.8348 62.2559 10.8724 62.2559 12.2803Z" fill="#364EC7"/>
<path d="M85.3027 12.2681C85.3027 14.3026 84.8389 15.9342 83.9111 17.1631C82.9915 18.3838 81.7464 18.9941 80.1758 18.9941C78.8411 18.9941 77.7629 18.5303 76.9409 17.6025V23.8281H73.4131V5.54199H76.6846L76.8066 6.83594C77.6611 5.81055 78.776 5.29785 80.1514 5.29785C81.779 5.29785 83.0444 5.90006 83.9478 7.10449C84.8511 8.30892 85.3027 9.96908 85.3027 12.085V12.2681ZM81.7749 12.0117C81.7749 10.7829 81.5552 9.8348 81.1157 9.16748C80.6844 8.50016 80.0537 8.1665 79.2236 8.1665C78.1169 8.1665 77.356 8.58968 76.9409 9.43604V14.8438C77.3722 15.7145 78.1413 16.1499 79.248 16.1499C80.9326 16.1499 81.7749 14.7705 81.7749 12.0117Z" fill="#364EC7"/>
</svg>
